<?xml version="1.0" standalone="no"?>
<!DOCTYPE svg PUBLIC "-//W3C//DTD SVG 20010904//EN"
 "http://www.w3.org/TR/2001/REC-SVG-20010904/DTD/svg10.dtd">
<svg version="1.0" xmlns="http://www.w3.org/2000/svg"
 width="512.000000pt" height="512.000000pt" viewBox="0 0 512.000000 512.000000"
 preserveAspectRatio="xMidYMid meet">

<g transform="translate(0.000000,512.000000) scale(0.100000,-0.100000)"
fill="#000000" stroke="none">
<path d="M983 4306 c-132 -32 -277 -139 -347 -255 -74 -122 -98 -290 -61 -430
16 -62 16 -65 -2 -74 -10 -5 -43 -35 -73 -67 -167 -172 -198 -467 -70 -672
l29 -48 -195 0 -196 0 -35 -35 -36 -36 6 -102 c16 -257 89 -473 234 -690 200
-301 550 -525 900 -577 43 -6 88 -13 100 -16 23 -4 23 -5 23 -215 0 -228 5
-254 55 -277 20 -9 321 -12 1246 -12 1326 0 1261 -3 1287 55 8 17 12 94 12
235 0 241 -16 211 120 229 342 46 704 278 903 577 144 216 217 430 233 684 7
107 -5 147 -53 169 -14 6 -89 11 -180 11 -134 0 -154 2 -149 15 3 8 13 54 22
102 22 118 15 307 -16 413 -95 331 -369 595 -701 675 -95 23 -260 29 -350 13
l-76 -14 -34 66 c-87 169 -289 289 -485 290 -76 0 -200 -31 -267 -67 -28 -16
-78 -53 -110 -83 l-59 -56 -68 23 c-141 47 -286 37 -421 -29 l-67 -33 -64 33
c-71 35 -176 62 -248 62 -57 0 -169 -24 -208 -44 l-30 -16 -54 53 c-131 127
-340 185 -515 143z m227 -202 c88 -26 170 -91 215 -171 35 -61 100 -72 165
-29 94 62 185 78 285 51 36 -9 67 -21 70 -25 3 -4 -6 -28 -20 -52 -35 -63 -55
-124 -63 -193 l-7 -60 -45 -2 c-130 -7 -241 -54 -331 -140 l-57 -55 -56 96
c-31 53 -81 138 -110 189 -30 51 -64 101 -75 111 -47 42 -136 12 -155 -53 -12
-40 -12 -40 158 -334 l134 -232 -8 -45 c-14 -72 -11 -197 9 -302 l17 -98 -280
0 -281 0 -51 29 c-63 36 -109 88 -143 161 -22 47 -26 68 -26 150 0 78 4 104
24 147 26 58 106 140 167 171 85 43 95 78 53 173 -36 84 -49 160 -38 229 33
210 245 345 449 284z m1981 0 c212 -61 319 -303 219 -498 -51 -99 -38 -146 51
-192 154 -77 224 -256 170 -431 -25 -82 -79 -157 -142 -195 l-45 -28 -407 2
-407 3 39 64 39 65 253 46 c140 26 264 52 276 58 30 17 43 43 43 90 0 33 -6
45 -31 66 -39 33 -58 33 -249 -3 -85 -16 -156 -28 -157 -27 -2 1 74 135 167
297 187 323 191 335 141 391 -33 37 -81 43 -122 16 -13 -8 -85 -121 -159 -249
-213 -372 -201 -353 -211 -338 -4 8 -32 81 -61 164 -59 169 -78 195 -140 195
-51 0 -98 -43 -98 -90 0 -18 39 -141 86 -275 l86 -242 -67 -117 -67 -116 -161
0 -162 0 -43 123 c-24 67 -48 129 -55 138 -36 47 -105 52 -148 10 -38 -38 -38
-74 1 -179 17 -46 30 -85 30 -87 0 -3 -72 -5 -160 -5 -88 0 -160 1 -160 3 0 1
-9 48 -20 105 -43 223 -10 376 102 477 68 61 128 79 232 70 145 -12 154 -12
183 18 29 28 28 23 23 179 -2 68 2 86 28 142 92 196 324 271 505 162 30 -18
64 -36 76 -39 41 -10 80 13 121 73 97 143 244 200 401 154z m824 -339 c140
-38 296 -139 386 -249 65 -79 136 -222 154 -311 26 -126 17 -280 -26 -412
l-11 -33 -384 0 -384 0 34 69 c20 38 40 89 46 113 10 40 15 45 68 67 143 58
292 194 292 267 0 37 -22 74 -51 90 -55 28 -104 12 -145 -48 -15 -21 -54 -56
-87 -78 l-60 -40 -26 77 c-32 96 -87 180 -156 239 l-53 46 14 44 c7 24 16 71
20 103 l6 60 52 10 c69 13 237 6 311 -14z m892 -1267 c-12 -123 -80 -314 -160
-445 l-31 -53 -2156 0 -2156 0 -31 53 c-82 135 -148 320 -160 445 l-6 62 2353
0 2353 0 -6 -62z m-392 -718 c-58 -64 -263 -179 -400 -223 -177 -58 -142 -57
-1555 -57 -1413 0 -1378 -1 -1555 57 -137 44 -342 159 -400 223 -18 20 -1 20
1955 20 1956 0 1973 0 1955 -20z m-855 -630 l0 -150 -1100 0 -1100 0 0 150 0
150 1100 0 1100 0 0 -150z"/>
</g>
</svg>
