<?xml version="1.0" standalone="no"?>
<!DOCTYPE svg PUBLIC "-//W3C//DTD SVG 20010904//EN"
 "http://www.w3.org/TR/2001/REC-SVG-20010904/DTD/svg10.dtd">
<svg version="1.0" xmlns="http://www.w3.org/2000/svg"
 width="842.000000pt" height="555.000000pt" viewBox="0 0 842.000000 555.000000"
 preserveAspectRatio="xMidYMid meet">

<g transform="translate(0.000000,555.000000) scale(0.100000,-0.100000)"
fill="#000000" stroke="none">
<path d="M3495 5400 c-11 -17 4 -46 30 -58 14 -6 25 -16 25 -22 0 -18 -29 -23
-47 -9 -14 12 -16 12 -11 -1 6 -20 52 -25 67 -7 15 19 5 42 -25 55 -33 16 -33
46 1 38 14 -4 25 -2 25 4 0 13 -57 13 -65 0z"/>
<path d="M3920 5350 c0 -38 4 -59 10 -55 6 3 10 15 10 26 0 13 7 19 24 19 19
0 26 -6 29 -27 2 -16 4 1 4 37 0 36 -2 53 -4 38 -3 -22 -10 -28 -29 -28 -17 0
-24 6 -24 19 0 11 -4 23 -10 26 -6 4 -10 -17 -10 -55z"/>
<path d="M3807 5387 c-2 -7 -2 -30 2 -52 5 -29 12 -41 26 -43 18 -2 19 -2 3 8
-21 13 -24 56 -6 62 9 3 8 9 -4 21 -12 12 -17 13 -21 4z"/>
<path d="M3586 5381 c-4 -5 -4 -15 -2 -23 2 -7 7 -25 10 -40 4 -18 13 -28 24
-27 10 0 12 3 5 6 -7 2 -13 17 -13 33 0 16 6 31 13 33 9 4 8 8 -3 16 -19 13
-27 14 -34 2z"/>
<path d="M3663 5373 c-7 -2 -13 -9 -13 -15 0 -6 6 -6 15 2 8 6 19 9 25 5 17
-11 11 -23 -16 -29 -38 -10 -28 -41 14 -43 30 -1 32 1 32 31 0 45 -21 64 -57
49z m35 -55 c-6 -18 -28 -21 -28 -4 0 9 7 16 16 16 9 0 14 -5 12 -12z"/>
<path d="M3742 5330 c1 -37 2 -39 5 -12 3 18 11 36 19 39 21 8 17 19 -6 19
-17 0 -20 -6 -18 -46z"/>
<path d="M4036 5364 c-19 -18 -20 -28 -6 -55 11 -20 45 -26 55 -9 4 6 -3 9
-16 7 -12 -1 -24 4 -26 11 -3 7 4 12 20 12 31 0 39 8 26 31 -12 23 -32 24 -53
3z m42 -12 c2 -7 -6 -12 -17 -12 -21 0 -27 11 -14 24 9 9 26 2 31 -12z"/>
<path d="M4128 5373 c-13 -3 -18 -15 -18 -44 0 -21 5 -39 10 -39 6 0 10 16 10
35 0 24 5 35 15 35 8 0 15 5 15 10 0 10 -3 11 -32 3z"/>
<path d="M4186 5364 c-19 -18 -21 -45 -4 -62 15 -15 45 -16 53 -2 4 6 -3 9
-16 7 -12 -1 -24 4 -26 11 -3 7 5 12 21 12 19 0 26 5 26 19 0 10 -7 22 -16 25
-21 8 -20 8 -38 -10z m42 -12 c2 -7 -6 -12 -17 -12 -21 0 -27 11 -14 24 9 9
26 2 31 -12z"/>
<path d="M1035 5318 c-27 -15 -35 -28 -35 -59 0 -30 11 -42 72 -72 47 -24 58
-46 33 -71 -22 -22 -51 -20 -75 4 -23 23 -40 26 -40 7 0 -46 102 -65 140 -27
41 41 18 85 -69 132 -24 13 -32 24 -29 40 4 28 40 36 74 17 33 -17 44 -1 15
22 -26 21 -56 24 -86 7z"/>
<path d="M6575 5321 c-38 -16 -58 -50 -63 -105 -7 -87 29 -136 100 -136 99 0
133 177 44 231 -33 20 -50 22 -81 10z m81 -47 c21 -31 23 -104 4 -139 -26 -48
-80 -44 -106 7 -20 39 -14 110 11 138 26 29 71 26 91 -6z"/>
<path d="M402 5203 c2 -82 7 -118 16 -121 9 -3 12 12 12 52 l0 56 55 0 55 0 0
-56 c0 -40 3 -55 13 -52 8 3 13 39 15 121 2 100 0 117 -13 117 -11 0 -15 -12
-15 -50 l0 -50 -55 0 -55 0 0 50 c0 38 -4 50 -15 50 -13 0 -15 -17 -13 -117z"/>
<path d="M1722 5203 c2 -82 7 -118 16 -121 9 -3 12 25 12 117 0 102 -2 121
-15 121 -13 0 -15 -17 -13 -117z"/>
<path d="M3052 5203 l3 -118 68 -3 c55 -2 67 0 67 13 0 12 -12 15 -56 15 l-55
0 3 43 c3 42 3 42 46 45 56 4 54 22 -3 22 -45 0 -45 0 -45 35 l0 35 50 0 c38
0 50 4 50 15 0 12 -14 15 -65 15 l-66 0 3 -117z"/>
<path d="M4460 5310 c0 -5 18 -10 40 -10 l39 0 3 -107 c2 -72 7 -108 15 -110
9 -3 13 24 15 104 l3 108 38 3 c20 2 37 7 37 13 0 5 -42 9 -95 9 -57 0 -95 -4
-95 -10z"/>
<path d="M5482 5205 c3 -132 20 -155 28 -38 l5 77 27 -62 c15 -35 33 -62 41
-62 9 0 24 24 37 58 13 31 27 61 32 67 4 5 8 -30 8 -78 0 -51 4 -87 10 -87 6
0 10 47 10 120 0 149 -13 157 -61 38 l-33 -82 -38 82 c-55 120 -69 113 -66
-33z"/>
<path d="M3848 5179 c-3 -28 -9 -34 -54 -50 -27 -11 -63 -32 -78 -48 -27 -28
-30 -29 -52 -15 -24 17 -44 12 -44 -10 0 -8 9 -20 21 -27 17 -12 20 -20 14
-52 l-7 -37 -219 0 c-183 0 -219 2 -219 14 0 22 -49 56 -80 56 -31 0 -80 -34
-80 -56 0 -12 -89 -14 -615 -14 -421 0 -615 3 -615 10 0 25 -50 60 -84 60 -28
0 -41 -7 -63 -35 l-28 -35 -247 0 c-199 0 -248 3 -248 13 0 25 -45 57 -79 57
-31 0 -81 -36 -81 -60 0 -6 -71 -10 -210 -10 -139 0 -210 4 -210 10 0 25 -50
60 -85 60 -88 0 -114 -120 -34 -154 43 -18 80 -7 104 32 l20 31 198 1 198 0
39 -42 40 -41 0 -314 0 -313 -30 0 -30 0 0 -215 0 -215 65 0 65 0 0 215 c0
208 -1 215 -20 215 -20 0 -20 7 -20 315 l0 314 28 15 c15 8 33 26 40 40 l12
26 245 0 245 0 10 -25 c5 -13 23 -31 40 -40 l30 -16 0 -314 0 -315 -30 0 -30
0 0 -215 0 -215 30 0 30 0 2 -217 3 -218 221 -3 222 -2 13 -31 c24 -58 101
-70 139 -21 64 80 -50 182 -120 107 l-23 -25 -219 0 -218 0 0 205 0 205 30 0
30 0 -2 213 -3 212 -27 3 -28 3 0 314 0 313 25 16 c14 10 31 28 37 42 l11 24
606 0 606 0 28 -35 c15 -19 34 -35 42 -35 13 0 15 -46 15 -320 l0 -320 -30 0
-30 0 0 -215 0 -215 30 0 30 0 0 -575 0 -575 -95 0 c-76 0 -95 3 -95 14 0 19
-47 56 -71 56 -30 0 -66 -21 -80 -46 l-12 -24 -205 0 -204 0 -28 30 c-39 42
-88 42 -124 -1 -14 -17 -26 -37 -26 -44 0 -33 22 -67 51 -79 43 -18 80 -7 104
32 l20 31 207 1 c198 0 207 -1 213 -20 7 -22 53 -50 83 -50 24 0 72 37 72 56
0 11 19 14 95 14 l95 0 0 -229 0 -230 -27 -3 -28 -3 0 -215 0 -215 28 -3 27
-3 0 -175 0 -174 -392 0 -393 0 -17 30 c-34 59 -113 58 -144 -2 -42 -81 66
-158 131 -93 14 13 25 29 25 35 0 7 127 10 395 10 l395 0 0 -185 0 -185 -30 0
-30 0 0 -215 0 -215 70 0 70 0 -2 213 c-3 211 -3 212 -25 215 l-23 3 0 369 0
369 23 3 22 3 0 215 0 215 -22 3 -23 3 0 820 0 819 25 0 25 0 -2 213 c-3 211
-3 212 -25 215 l-23 3 0 313 0 313 40 42 40 41 207 -2 207 -3 9 -44 c9 -43 4
-53 -27 -64 -5 -1 -6 -13 -2 -25 7 -20 9 -21 34 -8 25 13 29 12 65 -19 20 -18
58 -38 82 -45 40 -11 45 -16 45 -41 0 -22 5 -29 20 -29 15 0 20 7 20 29 0 25
5 30 45 41 24 7 62 27 82 45 36 31 40 32 65 19 25 -13 27 -12 33 7 7 20 -2 32
-29 42 -4 1 -4 23 1 47 l9 45 117 3 117 3 0 -36 0 -35 214 0 215 0 3 33 3 32
150 0 150 0 3 -1339 2 -1339 -40 -37 c-44 -40 -50 -71 -24 -108 9 -13 27 -27
40 -32 l24 -10 0 -371 0 -372 -40 -37 c-26 -24 -40 -46 -40 -62 0 -30 32 -74
60 -83 19 -6 20 -16 20 -265 0 -249 -1 -259 -20 -265 -27 -9 -60 -53 -60 -82
0 -33 51 -83 85 -83 35 0 85 50 85 86 0 18 -12 38 -35 60 l-35 33 0 250 0 251
40 40 40 40 100 0 100 0 0 -30 0 -30 215 0 215 0 0 65 0 65 -215 0 c-208 0
-215 -1 -215 -20 0 -19 -7 -20 -100 -20 l-100 0 -40 40 -40 40 0 371 0 370 36
35 37 34 113 0 113 0 3 -27 3 -28 213 -3 212 -2 0 30 0 30 300 0 300 0 0 -407
0 -408 -30 -17 c-74 -42 -56 -137 28 -154 26 -5 36 -1 62 24 46 46 39 101 -17
131 l-23 12 0 409 0 410 160 0 160 0 0 -30 0 -30 213 2 212 3 0 65 0 65 -212
3 -213 2 0 -25 0 -25 -470 0 -470 0 0 25 0 25 -215 0 -215 0 0 -25 0 -25 -114
0 c-105 0 -115 2 -121 20 -3 10 -19 30 -36 44 l-29 25 0 1346 0 1346 138 -3
137 -3 3 -33 3 -32 212 2 212 3 3 33 3 33 137 -3 137 -3 3 -407 c1 -282 -1
-408 -8 -408 -23 0 -60 -49 -60 -79 0 -43 9 -60 41 -77 l29 -15 0 -264 c0
-213 -3 -265 -13 -265 -26 0 -57 -45 -57 -81 0 -47 34 -79 81 -79 47 0 79 34
79 83 0 29 -7 41 -35 64 l-35 28 0 257 0 257 30 16 c17 9 30 20 30 25 0 6 47
10 115 10 l115 0 0 -30 0 -30 215 0 215 0 0 70 0 70 -212 -2 -213 -3 -3 -23
c-3 -22 -6 -23 -110 -20 -104 3 -106 4 -112 28 -3 14 -20 34 -38 45 l-31 20 2
405 2 405 142 3 142 3 3 -33 3 -33 213 -3 212 -2 0 70 0 70 -212 -2 c-212 -3
-213 -3 -216 -25 l-3 -23 -294 0 -294 0 -3 23 c-3 22 -4 22 -215 25 l-212 2
-3 -22 -3 -23 -302 -3 -303 -2 0 25 0 25 -212 -2 c-212 -3 -213 -3 -216 -25
-3 -22 -7 -23 -122 -23 l-118 0 -7 37 c-5 31 -3 39 15 53 14 10 19 22 14 33
-8 21 -14 21 -40 3 -17 -13 -22 -12 -50 15 -17 16 -53 38 -80 48 -43 16 -49
23 -52 50 -5 44 -39 44 -44 0z m2 -149 c0 -80 5 -78 -83 -23 -33 21 -37 26
-25 40 12 15 83 52 101 53 4 0 7 -32 7 -70z m111 44 c14 -7 31 -19 38 -28 10
-12 6 -19 -26 -39 -88 -55 -83 -57 -83 23 0 79 2 80 71 44z m-154 -160 c-6 -6
-31 -22 -55 -35 -37 -20 -45 -21 -52 -9 -11 17 -13 64 -4 98 l6 22 59 -32 c45
-25 56 -35 46 -44z m242 9 c1 -39 -8 -63 -23 -63 -6 0 -33 14 -60 31 l-50 31
60 34 c65 37 72 34 73 -33z m-199 -108 c0 -61 -1 -65 -23 -65 -23 0 -97 44
-97 58 0 8 98 69 113 71 4 1 7 -28 7 -64z m108 30 c28 -16 52 -33 52 -37 0
-14 -75 -58 -97 -58 -22 0 -23 4 -23 66 0 36 3 64 8 62 4 -1 31 -16 60 -33z"/>
<path d="M6573 4412 c-12 -2 -34 -17 -48 -33 -21 -25 -25 -41 -25 -91 0 -53 3
-63 29 -89 16 -16 36 -29 43 -29 8 0 29 -11 48 -25 40 -29 100 -35 100 -9 0
10 -6 14 -15 10 -13 -5 -75 11 -75 19 0 2 14 17 30 33 30 30 36 54 31 117 -3
25 -26 85 -34 85 -1 0 -16 4 -32 8 -17 4 -40 6 -52 4z m53 -30 c39 -25 46
-124 13 -166 -44 -55 -109 -13 -109 71 0 66 23 103 65 103 11 0 25 -4 31 -8z"/>
<path d="M5830 4127 c-39 -19 -62 -73 -57 -131 6 -63 47 -106 103 -106 59 0
74 14 74 70 l0 50 -40 0 c-22 0 -40 -4 -40 -10 0 -5 11 -10 25 -10 22 0 25 -4
25 -35 0 -29 -4 -36 -25 -41 -75 -19 -121 113 -64 182 15 18 64 18 83 -1 16
-17 36 -20 36 -6 0 16 -51 51 -74 51 -11 0 -32 -6 -46 -13z"/>
<path d="M1201 4102 c2 -5 22 -57 44 -116 51 -136 61 -137 115 -9 51 123 54
133 38 133 -7 0 -31 -44 -52 -97 -22 -53 -41 -92 -43 -87 -2 5 -19 47 -36 94
-23 59 -38 86 -51 88 -10 2 -17 0 -15 -6z"/>
<path d="M1900 4012 c0 -117 8 -132 71 -139 35 -4 50 -1 69 15 23 19 25 28 28
121 3 87 2 101 -12 101 -13 0 -16 -14 -16 -90 0 -77 -3 -93 -20 -110 -24 -24
-38 -25 -68 -4 -20 14 -22 23 -22 110 0 77 -3 94 -15 94 -12 0 -15 -18 -15
-98z"/>
<path d="M3315 4043 c-66 -165 -65 -163 -51 -163 7 0 19 14 26 30 12 28 16 30
65 30 50 0 54 -2 64 -30 5 -17 17 -30 27 -30 9 0 14 6 11 13 -95 254 -98 258
-142 150z m74 -65 c1 -14 -7 -18 -34 -18 -40 0 -42 6 -18 69 l17 44 17 -39
c10 -21 18 -47 18 -56z"/>
<path d="M2200 3600 c0 -100 3 -120 15 -120 12 0 15 13 15 55 l0 55 45 0 c25
0 45 5 45 10 0 6 -20 10 -45 10 l-45 0 0 40 0 40 50 0 c38 0 50 4 50 15 0 12
-14 15 -65 15 l-65 0 0 -120z"/>
<path d="M6220 3460 c0 -5 22 -10 48 -10 27 0 51 -3 55 -6 3 -3 -19 -43 -49
-88 -74 -110 -73 -116 21 -116 43 0 75 4 75 10 0 6 -25 10 -55 10 -31 0 -55 4
-55 10 0 6 25 50 55 97 30 48 55 91 55 95 0 4 -34 8 -75 8 -43 0 -75 -4 -75
-10z"/>
<path d="M2190 2865 l0 -115 80 0 c47 0 80 4 80 10 0 6 -28 10 -65 10 l-65 0
0 105 c0 87 -3 105 -15 105 -12 0 -15 -19 -15 -115z"/>
<path d="M2770 2865 c0 -96 3 -115 15 -115 11 0 15 12 15 44 0 73 33 73 71 0
15 -28 31 -44 42 -44 17 0 16 6 -12 54 -24 44 -27 55 -15 60 23 9 36 54 23 79
-17 32 -28 37 -86 37 l-53 0 0 -115z m91 85 c10 -6 19 -21 19 -34 0 -53 -72
-64 -78 -13 -6 54 14 70 59 47z"/>
<path d="M5510 2360 c0 -100 3 -120 15 -120 12 0 15 14 15 62 l0 61 56 -61
c49 -55 84 -77 84 -54 0 4 -22 30 -50 57 -27 27 -50 53 -50 58 0 5 18 29 40
54 22 25 40 50 40 54 0 21 -22 5 -69 -48 l-51 -57 0 57 c0 44 -3 57 -15 57
-12 0 -15 -20 -15 -120z"/>
<path d="M6890 2456 c0 -3 16 -31 35 -63 29 -48 35 -68 35 -115 0 -45 3 -58
15 -58 11 0 15 13 15 54 0 45 6 66 35 113 37 62 41 73 25 73 -6 0 -23 -20 -38
-45 -15 -25 -29 -45 -32 -45 -3 0 -17 20 -32 45 -15 25 -34 45 -43 45 -8 0
-15 -2 -15 -4z"/>
<path d="M4730 2135 c0 -70 4 -115 10 -115 6 0 10 35 10 86 0 47 4 83 8 80 5
-3 31 -41 58 -85 72 -117 84 -112 84 34 0 96 -3 115 -15 115 -12 0 -15 -17
-15 -87 l-1 -88 -56 88 c-30 48 -62 87 -69 87 -11 0 -14 -25 -14 -115z"/>
<path d="M3240 2027 c0 -14 34 -167 46 -209 3 -10 12 -18 19 -18 14 0 24 27
46 127 7 29 15 53 19 53 4 0 12 -24 19 -53 22 -100 32 -127 46 -127 8 0 18 16
24 38 29 116 44 193 37 199 -12 12 -22 -14 -41 -105 l-19 -87 -22 89 c-12 48
-27 93 -32 98 -15 15 -29 2 -36 -32 -3 -17 -13 -56 -23 -88 l-17 -57 -20 89
c-12 49 -27 91 -33 94 -7 2 -13 -3 -13 -11z"/>
<path d="M2190 1595 c0 -96 3 -115 15 -115 11 0 15 12 15 44 l0 43 42 6 c49 7
78 35 78 77 0 42 -28 60 -93 60 l-57 0 0 -115z m113 73 c8 -12 7 -24 -1 -42
-9 -21 -19 -26 -47 -26 -35 0 -35 0 -35 46 l0 45 36 -3 c21 -2 42 -10 47 -20z"/>
<path d="M5510 1544 c0 -4 14 -31 31 -61 28 -48 30 -56 17 -76 -55 -86 -60
-97 -44 -97 8 0 27 20 42 45 14 25 30 43 34 40 5 -3 19 -23 31 -45 13 -22 29
-40 37 -40 16 0 16 0 -22 71 l-29 54 32 51 c33 55 36 64 21 64 -5 0 -22 -18
-36 -40 -15 -22 -30 -40 -34 -40 -4 0 -19 18 -34 40 -23 35 -46 52 -46 34z"/>
<path d="M4720 1235 l0 -115 56 0 c30 0 64 5 75 10 56 31 66 153 15 197 -22
18 -39 23 -87 23 l-59 0 0 -115z m121 76 c20 -16 24 -28 24 -75 0 -66 -15 -85
-74 -93 l-41 -6 0 97 0 96 34 0 c19 0 44 -9 57 -19z"/>
<path d="M6633 1323 c-72 -14 -97 -160 -38 -219 32 -32 96 -33 126 -3 15 15
18 24 10 32 -8 8 -15 5 -27 -11 -34 -48 -97 -16 -109 57 -14 85 53 153 105
106 27 -25 46 -15 23 12 -19 24 -54 33 -90 26z"/>
<path d="M3368 759 c-2 -83 -6 -104 -20 -113 -13 -8 -22 -6 -37 9 -24 21 -41
12 -25 -13 6 -10 27 -18 47 -20 55 -5 67 21 67 140 0 79 -3 98 -15 98 -11 0
-15 -20 -17 -101z"/>
<path d="M4730 509 l0 -121 60 4 c92 7 130 58 79 109 -19 19 -19 22 -5 38 42
46 2 91 -81 91 l-53 0 0 -121z m117 75 c10 -27 -11 -49 -51 -52 -35 -3 -36 -2
-36 32 0 35 1 36 40 36 28 0 43 -5 47 -16z m-3 -100 c33 -33 11 -64 -46 -64
-38 0 -38 0 -38 40 0 39 1 40 34 40 19 0 42 -7 50 -16z"/>
</g>
</svg>
