<?xml version="1.0" encoding="utf-8"?>
<!-- Svg Vector Icons : http://www.onlinewebfonts.com/icon -->
<!DOCTYPE svg PUBLIC "-//W3C//DTD SVG 1.1//EN" "http://www.w3.org/Graphics/SVG/1.1/DTD/svg11.dtd">
<svg version="1.1" xmlns="http://www.w3.org/2000/svg" xmlns:xlink="http://www.w3.org/1999/xlink" x="0px" y="0px" viewBox="0 0 1000 1000" enable-background="new 0 0 1000 1000" xml:space="preserve">
<metadata> Svg Vector Icons : http://www.onlinewebfonts.com/icon </metadata>
<g><g transform="translate(0.000000,511.000000) scale(0.100000,-0.100000)"><path d="M3483.5,4986.5c-6-14.1-8-259.1-6-546.4l6-522.3l156.7-6l154.7-6l-4-1410.1l-6-1412.1L3445.3,503C2232-1574,976.6-3711.3,848-3920.2c-82.4-136.6-146.6-261.1-142.6-277.2c4-16.1,104.4-156.7,225-311.4l219-281.2h3850.8h3850.8l218.9,281.2c120.5,154.7,221,293.3,225,307.3c2,16.1-66.3,148.7-154.7,297.3c-829.6,1402.1-2892.6,4947.5-2910.6,4999.8c-18.1,48.2-24.1,452-24.1,1448.3v1384H6366h160.7l-4,538.3l-6,536.3l-1512.6,6C3794.8,5012.6,3489.5,5008.6,3483.5,4986.5z M6225.4,4470.3v-241H5000.1H3774.7v241v241h1225.3h1225.3V4470.3z M5924.1,2461.6c0-1285.6,4-1454.3,32.2-1510.6c34.1-66.3,1478.4-2537,2390.4-4087.8c313.4-534.3,570.5-990.3,570.5-1016.4c0-26.1-28.1-88.4-60.3-142.6c-46.2-70.3-88.4-106.5-166.7-142.6l-104.5-50.2H4976c-2673.6,0-3623.8,6-3659.9,22.1c-28.1,14.1-98.4,86.4-154.7,164.7c-82.4,108.5-100.4,146.6-84.4,172.8c10,18.1,299.3,512.2,642.8,1096.8c343.5,586.6,1010.4,1725.5,1484.5,2531L4064,965l14.1,251.1c8,138.6,16.1,799.5,16.1,1472.4l2,1219.3h914h914V2461.6z"/><path d="M4327.1-1021.6c-78.3-36.2-160.7-124.6-198.9-216.9c-80.3-190.8,14.1-403.8,212.9-488.1c198.9-82.4,437.9,36.1,498.2,247.1c24.1,92.4,24.1,116.5,0,208.9C4779.1-1059.8,4522-935.2,4327.1-1021.6z"/><path d="M3238.4-1258.6c-38.2-44.2-1643.1-2758-1667.3-2820.3c-8-24.1,441.9-28.1,3426.9-28.1c2119.2,0,3437,8,3437,18.1c0,12-116.5,221-259.1,468c-140.6,247.1-504.2,877.8-803.5,1402.1c-301.3,524.3-562.5,966.2-580.5,980.3c-24.1,18.1-223,24.1-839.6,24.1h-805.5l-10-170.8c-8-144.6-20.1-190.8-78.3-305.3c-116.5-227-317.4-347.5-582.5-347.5c-194.8,0-335.5,58.2-470,190.8c-136.6,136.6-190.8,273.2-190.8,482.1v150.7h-267.2C3294.6-1214.4,3276.6-1216.5,3238.4-1258.6z M6376.1-1795c124.6-54.2,257.1-182.8,327.4-313.4c48.2-90.4,54.2-122.5,54.2-301.3c0-170.7-6-212.9-46.2-287.2c-128.6-241.1-345.5-371.6-610.7-373.6c-132.6,0-170.7,10-285.2,66.3c-540.4,265.1-482.1,1050.6,94.4,1239.4C6030.5-1724.7,6251.5-1740.7,6376.1-1795z M4688.7-2658.7c102.4-46.2,237-196.9,267.2-299.3c104.5-347.5-122.5-666.9-472.1-666.9c-212.9,0-359.6,84.4-458,263.1c-136.6,253.1-24.1,582.5,241,703.1C4375.3-2608.5,4580.2-2608.5,4688.7-2658.7z"/><path d="M5996.4-2042.1c-146.7-40.2-273.2-214.9-273.2-379.7c0-28.1,24.1-98.4,52.2-154.6c100.4-202.9,339.5-269.2,534.3-146.7c279.2,176.8,210.9,594.6-114.5,683C6102.9-2015.9,6100.8-2015.9,5996.4-2042.1z"/><path d="M4363.3-2942c-78.3-48.2-106.5-96.4-106.5-190.8c0-58.3,16.1-90.4,70.3-144.6c66.3-66.3,78.3-70.3,164.7-60.3c170.7,18.1,253.1,168.7,176.8,315.4c-34.2,66.3-122.5,120.5-194.8,120.5C4447.7-2901.8,4399.5-2919.9,4363.3-2942z"/></g></g>
</svg>