<?xml version="1.0" standalone="no"?>
<!DOCTYPE svg PUBLIC "-//W3C//DTD SVG 20010904//EN"
 "http://www.w3.org/TR/2001/REC-SVG-20010904/DTD/svg10.dtd">
<svg version="1.0" xmlns="http://www.w3.org/2000/svg"
 width="2048.000000pt" height="1833.000000pt" viewBox="0 0 2048.000000 1833.000000"
 preserveAspectRatio="xMidYMid meet">

<g transform="translate(0.000000,1833.000000) scale(0.100000,-0.100000)"
fill="#000000" stroke="none">
<path d="M10 9165 l0 -9155 10230 0 10230 0 0 9155 0 9155 -10230 0 -10230 0
0 -9155z m7800 8416 c0 -5 23 -11 50 -15 28 -4 50 -11 50 -16 0 -6 7 -10 15
-10 30 0 123 -61 187 -123 140 -134 251 -335 323 -582 25 -87 71 -338 73 -400
1 -16 4 -54 7 -82 l6 -53 105 0 c58 0 114 -5 126 -11 11 -6 28 -29 39 -52 18
-40 19 -75 19 -627 0 -579 0 -585 -21 -620 -12 -19 -29 -40 -38 -47 -12 -10
-256 -12 -1102 -13 l-1086 0 -21 23 c-52 56 -52 52 -52 677 0 620 -1 609 49
654 17 15 34 18 93 17 83 -2 88 2 88 77 0 119 67 456 122 611 64 183 166 343
281 445 73 63 179 123 237 132 22 4 43 11 46 15 7 12 404 12 404 0z m-2369
-260 c297 -76 585 -285 709 -516 18 -33 36 -65 41 -70 14 -19 66 -169 80 -230
7 -33 14 -67 16 -75 17 -80 24 -259 14 -379 -26 -296 -121 -536 -280 -705
-131 -138 -282 -225 -481 -277 -176 -47 -240 -50 -1016 -47 -695 3 -716 4
-730 22 -11 16 -14 67 -13 255 1 130 4 247 8 261 l7 25 162 3 162 2 -2 598 -3
597 -157 1 c-86 1 -161 5 -167 8 -12 8 -16 481 -5 524 l6 22 788 0 c740 0 791
-1 861 -19z m4858 -12 c16 -47 15 -506 -2 -539 -13 -25 -13 -25 -175 -28
l-162 -2 0 -555 0 -555 404 0 405 0 3 203 c2 155 6 208 17 220 12 15 44 17
277 17 250 0 264 -1 274 -19 6 -13 10 -191 10 -510 0 -432 -2 -491 -16 -505
-14 -14 -137 -16 -1209 -16 -1072 0 -1195 2 -1209 16 -24 23 -24 555 0 578 13
13 43 16 170 16 l154 0 0 555 0 555 -162 2 -162 3 -7 25 c-12 41 -10 529 1
551 10 18 29 19 694 19 l684 0 11 -31z m2501 12 c6 -12 10 -120 10 -281 0
-161 -4 -269 -10 -281 -10 -18 -23 -19 -173 -19 l-162 0 0 -553 0 -552 408 -3
407 -2 0 203 c0 147 3 208 13 220 11 16 37 17 277 15 l264 -3 13 -25 c10 -19
13 -137 13 -500 0 -414 -2 -478 -16 -498 l-15 -22 -1198 0 c-918 0 -1200 3
-1209 12 -9 9 -12 88 -12 295 0 269 1 283 19 293 11 5 85 10 168 10 l148 0 -3
555 -2 555 -155 0 c-142 0 -155 2 -165 19 -11 21 -15 537 -4 565 6 14 76 16
690 16 665 0 684 -1 694 -19z m2430 3 c65 -15 169 -69 225 -118 16 -14 32 -23
35 -20 3 3 10 38 15 77 l10 72 212 3 c203 2 213 2 223 -17 7 -13 9 -128 8
-338 l-3 -318 -245 -3 -245 -2 -18 51 c-25 69 -99 143 -158 159 -24 7 -54 16
-67 21 -13 5 -114 9 -225 8 -236 -1 -286 -11 -324 -68 -30 -45 -31 -118 -2
-155 43 -55 67 -60 299 -68 277 -9 338 -16 585 -64 76 -15 206 -72 258 -112
187 -148 280 -410 248 -703 -37 -335 -200 -553 -487 -649 -108 -35 -108 -35
-239 -51 -125 -15 -508 -7 -529 10 -9 7 -16 11 -16 8 0 -10 -120 41 -177 77
-32 19 -75 51 -97 70 -21 20 -40 36 -42 36 -2 0 -4 -42 -4 -93 0 -59 -4 -97
-12 -105 -13 -13 -461 -18 -492 -6 -14 5 -16 46 -16 349 0 189 3 350 6 359 5
14 38 16 264 16 282 0 264 4 276 -59 14 -73 81 -145 166 -178 37 -15 86 -17
340 -18 l298 0 31 31 c56 56 49 136 -18 199 -27 24 -31 25 -178 25 -264 1
-543 30 -581 61 -6 5 -13 7 -16 4 -3 -3 -18 1 -34 10 -16 8 -35 15 -42 15 -33
0 -152 57 -204 97 -63 48 -149 141 -174 188 -87 162 -114 250 -121 392 -12
228 43 397 185 575 102 129 209 198 351 228 118 25 630 28 731 4z m-11365
-2709 c114 -30 241 -112 358 -230 74 -75 125 -149 165 -240 l31 -70 2040 -5
2041 -5 27 -28 c27 -26 28 -32 28 -127 0 -98 0 -100 -32 -131 -24 -25 -42 -33
-81 -37 -48 -4 -51 -6 -66 -46 -9 -23 -16 -50 -16 -59 0 -55 -56 -78 -84 -34
-8 12 -20 48 -27 80 -7 31 -13 57 -15 57 -39 0 -66 -81 -62 -185 3 -86 4 -87
78 -106 55 -13 130 -88 156 -154 58 -153 -72 -335 -239 -335 -60 0 -87 9 -123
41 -19 18 -23 18 -64 4 -23 -8 -66 -15 -95 -15 -46 0 -62 6 -116 43 -141 94
-166 217 -76 372 56 98 69 146 65 250 l-3 80 -46 3 -46 3 -18 -83 c-21 -94
-30 -110 -59 -106 -18 3 -22 12 -27 74 -4 39 -10 81 -14 92 l-6 22 -1513 0
-1512 0 -38 -77 c-99 -203 -118 -233 -205 -321 -62 -62 -114 -96 -275 -181
-132 -69 -236 -99 -371 -107 -103 -7 -248 27 -330 77 -152 92 -228 203 -247
360 -20 172 21 300 127 398 l57 52 -22 50 c-35 83 -30 236 13 369 21 66 95
148 180 199 84 51 164 71 287 71 73 0 138 -6 175 -15z m12914 -18 c83 -35 181
-110 219 -167 48 -72 65 -133 70 -258 4 -99 1 -121 -18 -173 l-22 -61 60 -53
c174 -158 173 -488 -3 -660 -118 -116 -296 -183 -455 -172 -169 13 -337 77
-538 204 -118 75 -218 207 -315 416 l-32 67 -1512 0 -1512 0 -6 -22 c-4 -11
-10 -53 -14 -92 -6 -68 -7 -71 -33 -74 -33 -4 -39 8 -57 116 l-13 73 -46 -3
-47 -3 0 -105 c0 -116 7 -140 66 -235 86 -138 54 -277 -84 -366 -52 -34 -68
-39 -119 -39 -32 0 -75 7 -95 15 -34 14 -38 14 -57 -4 -36 -32 -63 -41 -123
-41 -90 0 -164 46 -224 139 -24 37 -29 56 -29 108 0 81 16 119 77 181 35 37
60 53 93 61 73 18 75 20 78 102 3 84 -11 150 -39 175 -11 10 -21 15 -23 13 -2
-2 -12 -35 -23 -74 -14 -54 -24 -72 -43 -82 -22 -11 -27 -10 -42 8 -10 12 -18
31 -18 42 0 12 -7 41 -16 64 -15 39 -20 43 -51 43 -46 0 -99 24 -114 52 -9 14
-14 59 -14 120 0 93 1 99 28 125 l27 28 2041 5 2040 5 33 76 c94 215 335 422
551 473 11 2 81 4 155 2 121 -2 142 -5 199 -29z m-7656 -309 c4 -62 10 -220
14 -351 3 -130 7 -236 9 -235 1 2 5 71 8 153 4 83 11 186 16 230 5 44 12 125
15 180 10 148 -3 135 136 135 117 0 119 0 119 -22 0 -13 4 -95 10 -183 5 -88
12 -245 16 -350 6 -201 14 -259 14 -109 0 86 23 460 36 597 l7 67 113 0 c86 0
114 -3 114 -13 0 -17 -80 -1092 -85 -1137 -2 -19 -4 -52 -4 -72 l-1 -38 -145
0 c-80 0 -145 3 -146 8 0 4 -2 16 -4 27 -5 33 -34 323 -44 430 -6 75 -9 86
-10 45 -1 -44 -17 -232 -37 -435 -1 -16 -3 -40 -3 -52 -1 -23 -3 -23 -146 -23
l-145 0 -2 33 c-1 17 -3 46 -4 62 -22 279 -84 1123 -84 1141 0 24 0 24 114 24
l113 0 6 -112z m987 -518 l0 -630 -120 0 -120 0 0 630 0 630 120 0 120 0 0
-630z m610 485 l0 -145 -65 0 -65 0 0 -485 0 -485 -115 0 -115 0 0 485 0 485
-65 0 -65 0 0 145 0 145 245 0 245 0 0 -145z m360 -70 c0 -208 1 -215 20 -215
19 0 20 7 20 215 l0 215 115 0 115 0 0 -630 0 -630 -115 0 -115 0 0 255 c0
248 -1 255 -20 255 -19 0 -20 -7 -20 -255 l0 -255 -120 0 -120 0 0 630 0 630
120 0 120 0 0 -215z m-3559 -1525 c102 -10 116 -12 247 -36 318 -59 561 -211
636 -399 62 -155 58 -296 -14 -480 -115 -293 -309 -494 -690 -717 -132 -77
-197 -109 -373 -182 -447 -186 -991 -325 -1902 -485 l-210 -37 -78 -58 c-43
-33 -76 -60 -75 -62 2 -1 91 -16 198 -33 107 -17 213 -33 235 -36 514 -81 952
-200 1160 -316 153 -85 239 -163 284 -258 22 -48 26 -70 26 -147 0 -86 -2 -94
-42 -175 -90 -179 -363 -440 -649 -620 -461 -291 -1037 -504 -1629 -604 -219
-37 -342 -52 -565 -70 -457 -37 -782 38 -971 225 -128 127 -163 274 -118 496
31 156 65 227 171 361 101 127 244 279 575 614 172 173 313 318 313 321 0 3
-39 8 -87 11 -353 25 -513 126 -445 279 64 145 310 226 902 297 91 11 199 25
241 32 l75 11 245 195 c417 334 559 437 763 553 146 84 254 134 378 174 143
47 428 93 428 69 0 -10 -49 -73 -118 -151 -63 -71 -367 -360 -614 -585 -91
-83 -113 -107 -95 -107 39 0 376 57 557 94 394 81 711 184 1005 326 250 120
444 293 475 420 17 71 -4 123 -75 189 -121 110 -259 141 -630 141 -195 0 -381
-18 -565 -55 -14 -2 -108 -20 -210 -39 -363 -68 -871 -201 -1304 -343 l-110
-36 29 -23 c52 -41 33 -121 -38 -164 -33 -20 -136 -58 -178 -65 -13 -2 -78
-13 -144 -24 -223 -38 -327 -65 -728 -187 -153 -47 -304 -89 -337 -94 -75 -11
-129 2 -159 36 -20 24 -23 35 -19 95 3 64 7 73 62 152 106 156 229 300 411
483 268 269 439 405 609 485 135 62 650 210 991 284 66 14 147 33 181 41 34 8
146 30 250 49 104 20 200 38 214 40 154 31 611 93 840 114 122 12 558 12 671
1z m5986 -486 c29 -18 47 -86 39 -144 -23 -170 -207 -581 -370 -828 -218 -331
-607 -744 -1131 -1202 -145 -127 -617 -516 -740 -610 -113 -86 -129 -100 -158
-144 -68 -102 -134 -318 -130 -424 1 -18 12 -63 24 -100 27 -82 92 -154 154
-171 162 -45 442 48 820 270 148 87 520 333 532 352 4 7 25 54 46 106 159 394
448 849 790 1241 361 414 1250 1187 1731 1504 320 211 451 222 451 38 0 -166
-190 -600 -392 -897 -258 -378 -776 -903 -1384 -1401 -295 -241 -366 -299
-459 -371 -130 -101 -151 -123 -188 -198 -105 -209 -127 -371 -68 -503 65
-142 161 -177 371 -133 158 32 418 150 436 198 17 46 141 157 344 308 110 82
414 308 675 503 261 195 591 441 732 546 217 162 259 196 268 226 7 19 28 64
47 100 109 201 255 301 443 303 189 2 217 -37 194 -278 -7 -71 -13 -191 -13
-266 -2 -355 -59 -596 -197 -829 -75 -128 -121 -188 -228 -299 -177 -182 -441
-384 -675 -516 l-124 -70 44 -8 c71 -13 265 -1 354 23 185 49 389 158 835 446
226 145 352 233 414 289 83 75 92 87 138 184 139 296 257 469 336 491 91 25
169 5 198 -52 21 -40 13 -131 -15 -186 -29 -58 -108 -160 -181 -237 -50 -53
-84 -102 -136 -200 -38 -71 -71 -134 -73 -140 -2 -5 -63 -111 -134 -235 -72
-124 -167 -288 -212 -365 -110 -192 -162 -276 -216 -349 -25 -35 -63 -89 -84
-120 -20 -31 -46 -61 -56 -66 -10 -6 -33 -32 -50 -58 -62 -91 -242 -317 -284
-357 -23 -22 -75 -69 -115 -105 -40 -36 -96 -88 -124 -117 -28 -28 -87 -80
-132 -115 -44 -35 -139 -109 -210 -166 -71 -56 -163 -129 -204 -161 -41 -33
-104 -82 -140 -110 -36 -28 -76 -60 -90 -71 -33 -26 -189 -141 -220 -162 -14
-9 -50 -35 -80 -57 -149 -109 -572 -385 -798 -520 -139 -83 -254 -151 -257
-151 -2 0 -28 -14 -57 -31 -230 -137 -800 -428 -1043 -534 -33 -14 -69 -30
-80 -35 -11 -5 -36 -15 -55 -23 -19 -8 -51 -21 -70 -30 -19 -8 -53 -20 -75
-27 -22 -6 -49 -15 -60 -20 -94 -41 -417 -129 -530 -144 -27 -4 -61 -9 -75
-11 -41 -6 -181 -24 -230 -29 -472 -50 -547 -51 -700 -6 -236 69 -346 244
-344 545 1 125 31 300 70 404 45 119 173 335 311 524 19 26 32 47 28 47 -4 0
-75 -32 -158 -71 -82 -39 -191 -89 -241 -110 -50 -22 -100 -44 -111 -49 -11
-5 -117 -50 -235 -100 -232 -99 -241 -103 -344 -150 -38 -17 -92 -40 -120 -52
-103 -44 -604 -302 -688 -355 -21 -13 -40 -23 -44 -23 -3 0 -36 -17 -72 -38
-62 -36 -118 -67 -292 -160 -36 -19 -78 -42 -95 -52 -16 -10 -77 -42 -135 -73
-58 -30 -172 -90 -255 -134 -205 -109 -818 -416 -1110 -556 -386 -185 -732
-347 -740 -347 -3 0 -35 -14 -72 -31 -549 -253 -1303 -527 -1838 -668 -237
-62 -380 -91 -705 -141 -261 -41 -764 -34 -965 13 -186 44 -432 152 -550 241
-125 95 -249 236 -307 351 -40 77 -87 251 -105 389 -12 89 -6 302 11 391 49
262 228 631 461 951 352 482 937 1035 1495 1412 212 143 298 189 403 217 53
14 115 36 139 49 24 13 90 45 148 70 58 25 142 65 188 90 125 68 172 81 282
81 89 0 100 -2 165 -35 80 -40 115 -83 115 -139 0 -53 -19 -74 -124 -130 -142
-75 -339 -207 -451 -302 -103 -87 -259 -238 -429 -418 -103 -108 -143 -134
-226 -146 -82 -12 -204 19 -249 64 -17 17 -20 16 -67 -27 -184 -167 -427 -419
-567 -586 -229 -275 -391 -516 -512 -761 -169 -345 -213 -568 -170 -860 41
-275 150 -415 386 -497 l94 -32 255 0 c258 0 386 12 645 60 312 58 752 187
1180 347 88 33 194 72 235 87 74 27 344 138 450 185 30 13 107 46 170 74 160
69 313 138 460 208 69 33 168 79 220 104 141 66 1141 565 1320 659 85 45 238
125 340 177 102 53 212 110 245 128 33 18 94 51 135 73 41 22 107 57 145 79
39 21 178 92 310 158 132 65 247 122 255 127 43 23 214 102 395 183 91 41 395
168 485 203 58 22 176 67 262 101 87 34 163 61 171 61 7 0 17 4 23 8 8 8 339
118 473 157 131 39 398 56 559 35 102 -13 168 -39 213 -82 61 -59 50 -114 -38
-179 -48 -36 -193 -109 -216 -109 -7 0 -21 -6 -32 -13 -11 -7 -42 -22 -70 -32
-118 -43 -246 -139 -301 -227 -25 -39 -77 -151 -142 -303 -30 -72 -60 -209
-56 -256 2 -19 5 -52 7 -74 1 -22 9 -53 17 -69 17 -33 86 -84 140 -104 105
-39 348 -63 439 -43 28 6 136 18 239 26 103 8 201 18 217 20 92 15 163 28 185
33 27 6 28 6 50 14 8 4 40 14 70 23 59 17 232 79 265 95 11 5 43 19 70 31 28
11 74 32 103 45 29 13 54 24 56 24 10 0 372 179 461 228 55 30 134 73 175 95
41 22 92 51 112 64 21 13 40 23 43 23 2 0 39 20 81 45 41 25 77 45 79 45 4 0
123 72 206 126 38 24 72 44 76 44 3 0 20 10 37 23 17 12 74 49 126 82 52 33
100 63 105 67 6 5 55 38 109 74 90 60 204 140 232 163 5 4 20 14 33 20 12 7
30 19 39 26 24 20 256 194 307 230 24 17 58 42 76 57 133 105 406 303 584 423
72 49 155 107 185 129 54 40 264 246 430 421 81 86 125 137 344 392 80 95 242
332 218 321 -4 -2 -77 -55 -162 -119 -591 -443 -1129 -731 -1484 -794 -129
-23 -333 -16 -456 15 -90 23 -222 81 -305 132 -160 101 -268 246 -304 408 -7
30 -14 61 -17 68 -2 8 -28 -6 -71 -38 -107 -81 -287 -200 -423 -282 -338 -203
-579 -290 -815 -291 -220 -2 -338 71 -405 251 -41 108 -41 347 -1 537 10 50
18 91 17 92 0 0 -37 -28 -81 -63 -743 -600 -1277 -865 -1641 -815 -96 13 -189
56 -235 108 -53 61 -97 167 -109 265 -13 93 -2 271 24 403 8 39 13 71 12 72 0
1 -66 -48 -145 -108 -186 -142 -622 -431 -826 -549 -205 -118 -415 -220 -535
-261 -252 -85 -418 -8 -424 196 -4 160 137 448 391 792 29 40 53 77 53 83 0 5
-224 -140 -497 -323 -666 -445 -897 -581 -1034 -609 -51 -11 -59 -9 -113 15
-91 42 -171 134 -247 287 -61 121 -81 212 -82 365 0 122 2 135 32 216 102 276
360 548 791 834 535 355 1315 682 1845 774 33 6 74 13 90 16 17 3 77 9 135 12
155 8 250 -17 323 -86 36 -33 85 -127 93 -180 12 -77 -51 -139 -199 -196 l-78
-29 28 -14 c68 -35 103 -94 103 -175 0 -128 -37 -178 -390 -527 -307 -304
-369 -376 -426 -495 -46 -95 -46 -142 1 -183 42 -37 85 -47 175 -38 160 14
298 78 721 333 l327 196 37 96 c157 403 437 852 780 1251 325 378 1170 1126
1649 1461 186 129 288 189 380 221 81 28 102 28 143 2z"/>
<path d="M7523 17000 c-76 -31 -177 -195 -222 -360 -26 -95 -62 -323 -52 -333
4 -4 171 -6 372 -5 l364 3 -3 45 c-7 100 -51 302 -81 375 -66 156 -111 222
-177 261 -33 19 -54 24 -110 23 -38 0 -79 -4 -91 -9z"/>
<path d="M7535 16083 c-31 -8 -84 -52 -106 -87 -31 -50 -25 -106 16 -160 l35
-46 0 -128 c0 -138 7 -162 53 -196 34 -25 110 -28 151 -6 48 25 56 55 56 208
0 113 3 141 15 145 8 4 24 25 36 48 56 110 -39 230 -181 228 -30 -1 -64 -4
-75 -6z"/>
<path d="M4847 16783 c-4 -3 -7 -274 -7 -600 l0 -594 170 3 c99 2 174 7 178
13 4 6 29 21 55 34 86 44 177 166 218 295 44 137 46 360 5 496 -37 121 -127
260 -198 304 -18 11 -36 24 -39 28 -13 19 -84 28 -225 28 -83 0 -154 -3 -157
-7z"/>
<path d="M3635 14366 c-57 -26 -127 -97 -150 -153 -17 -40 -16 -127 3 -224 17
-92 8 -115 -86 -208 -53 -54 -95 -106 -114 -144 -27 -52 -29 -65 -23 -115 7
-62 28 -102 72 -144 40 -37 221 -73 297 -59 28 5 78 12 111 16 169 17 363 128
451 257 16 24 46 65 67 92 l38 50 -43 15 c-58 22 -78 62 -78 159 0 68 20 142
39 142 3 0 12 4 20 9 11 7 3 23 -40 77 -30 38 -67 81 -84 97 -33 31 -228 129
-290 146 -65 18 -135 13 -190 -13z"/>
<path d="M7898 13661 c5 -115 -11 -183 -68 -296 -62 -123 -63 -146 -10 -197
61 -57 111 -52 125 12 9 42 21 59 53 71 24 9 82 -12 82 -31 0 -5 12 -34 26
-65 25 -51 29 -55 61 -55 51 0 113 63 113 113 0 56 -47 103 -115 117 -59 12
-95 45 -122 107 -22 53 -16 195 11 281 7 22 6 22 -76 22 l-83 0 3 -79z"/>
<path d="M16430 14379 c-62 -19 -234 -105 -273 -137 -37 -30 -147 -160 -147
-174 0 -4 8 -9 18 -12 31 -10 52 -70 52 -149 0 -94 -20 -136 -75 -156 -22 -8
-42 -16 -44 -18 -8 -6 145 -196 194 -241 90 -82 239 -144 390 -162 50 -6 98
-13 108 -16 10 -3 70 4 133 17 112 21 116 23 150 63 45 52 55 78 56 146 1 76
-33 139 -118 220 -93 87 -106 110 -106 185 0 33 5 73 11 88 17 44 13 131 -8
179 -25 57 -85 125 -135 150 -48 24 -153 33 -206 17z"/>
<path d="M12200 13733 c0 -5 7 -30 15 -57 18 -59 20 -179 3 -227 -22 -67 -65
-106 -132 -121 -56 -12 -106 -62 -106 -104 0 -47 19 -81 57 -105 57 -36 83
-24 123 55 37 73 63 92 103 77 33 -13 48 -35 50 -75 2 -32 6 -37 33 -42 60
-11 134 51 134 112 0 16 -16 54 -35 86 -58 93 -76 158 -82 291 l-6 117 -78 0
c-44 0 -79 -3 -79 -7z"/>
<path d="M4539 9754 c-556 -473 -606 -521 -658 -624 -108 -217 73 -369 499
-420 325 -39 879 97 1365 335 180 87 287 156 373 239 102 97 122 153 80 228
-84 148 -520 271 -1188 333 -85 8 -198 15 -251 15 l-96 0 -124 -106z"/>
<path d="M14774 11324 c-130 -82 -260 -190 -419 -349 -168 -168 -404 -438
-548 -626 -207 -272 -320 -429 -309 -429 4 0 59 41 122 92 473 377 969 908
1224 1311 20 31 33 57 28 57 -4 0 -48 -25 -98 -56z"/>
<path d="M12795 11349 c-257 -137 -636 -517 -1041 -1044 -151 -196 -262 -349
-271 -373 -6 -14 -4 -14 14 -1 89 64 280 225 453 384 192 176 512 516 614 651
17 23 58 77 92 120 51 66 162 226 188 272 10 17 -4 15 -49 -9z"/>
<path d="M15605 9785 c-104 -80 -284 -217 -400 -305 -115 -88 -284 -217 -375
-286 -91 -69 -165 -129 -164 -135 1 -5 2 -15 3 -22 0 -7 23 -20 49 -29 110
-39 192 -124 275 -285 23 -46 44 -83 47 -83 12 0 231 126 310 178 47 31 123
95 170 142 71 70 95 103 137 185 79 157 100 233 117 435 23 261 29 350 25 350
-2 0 -89 -66 -194 -145z"/>
<path d="M9340 9824 c-395 -121 -760 -251 -985 -351 -291 -128 -575 -303 -711
-438 -198 -196 -297 -444 -205 -516 32 -26 76 -22 189 17 241 83 609 327 1297
860 378 293 600 474 579 473 -11 0 -84 -21 -164 -45z"/>
</g>
</svg>
